<?xml version="1.0" encoding="UTF-8" standalone="no"?>
<!-- Created with Inkscape (http://www.inkscape.org/) -->

<svg
   xmlns:dc="http://purl.org/dc/elements/1.1/"
   xmlns:cc="http://creativecommons.org/ns#"
   xmlns:rdf="http://www.w3.org/1999/02/22-rdf-syntax-ns#"
   xmlns:svg="http://www.w3.org/2000/svg"
   xmlns="http://www.w3.org/2000/svg"
   xmlns:sodipodi="http://sodipodi.sourceforge.net/DTD/sodipodi-0.dtd"
   xmlns:inkscape="http://www.inkscape.org/namespaces/inkscape"
   version="1.1"
   id="svg2524"
   xml:space="preserve"
   width="800"
   height="800"
   viewBox="0 0 800 800"
   sodipodi:docname="deer-stag-publicdomainvectors.org.svg"
   inkscape:version="0.92.4 (5da689c313, 2019-01-14)"><metadata
     id="metadata2530"><rdf:RDF><cc:Work
         rdf:about=""><dc:format>image/svg+xml</dc:format><dc:type
           rdf:resource="http://purl.org/dc/dcmitype/StillImage" /><dc:title></dc:title></cc:Work></rdf:RDF></metadata><defs
     id="defs2528"><clipPath
       clipPathUnits="userSpaceOnUse"
       id="clipPath2540"><path
         d="M 0,600 H 600 V 0 H 0 Z"
         id="path2538"
         inkscape:connector-curvature="0" /></clipPath></defs><sodipodi:namedview
     pagecolor="#ffffff"
     bordercolor="#666666"
     borderopacity="1"
     objecttolerance="10"
     gridtolerance="10"
     guidetolerance="10"
     inkscape:pageopacity="0"
     inkscape:pageshadow="2"
     inkscape:window-width="1920"
     inkscape:window-height="1018"
     id="namedview2526"
     showgrid="false"
     inkscape:zoom="0.63729008"
     inkscape:cx="608.47458"
     inkscape:cy="323.72881"
     inkscape:window-x="-8"
     inkscape:window-y="-8"
     inkscape:window-maximized="1"
     inkscape:current-layer="g2532" /><g
     id="g2532"
     inkscape:groupmode="layer"
     inkscape:label="deer-stag-publicdomainvectors.org"
     transform="matrix(1.3333333,0,0,-1.3333333,0,800)"><g
       id="g2534"><g
         id="g2536"
         clip-path="url(#clipPath2540)"><path
           d="m 318.233,322.193 c 0.04,0.073 0.108,0.124 0.17,0.182 -0.077,-0.074 -0.167,-0.157 -0.2,-0.187 -0.026,-0.052 -0.049,-0.115 -0.053,-0.172 l 0.003,0.005 c 0.034,0.068 -0.022,-0.028 0.08,0.172 m 1.252,-0.75 c 0.014,0.027 0.017,0.033 0.023,0.045 -0.109,-0.104 -0.335,-0.321 -0.252,-0.259 0.092,0.044 0.177,0.126 0.229,0.214 m -44.672,0.757 c -0.031,0.056 -0.056,0.095 -0.054,0.068 l 0.004,-0.018 c 0.059,-0.057 0.061,-0.06 0.05,-0.05 m 43.448,0.061 c 0.002,0.03 -0.03,-0.013 -0.058,-0.071 -0.015,-0.014 -0.008,-0.006 0.055,0.053 z m -43.647,0.12 c 0.061,-0.058 0.128,-0.109 0.17,-0.18 0.106,-0.205 0.05,-0.105 0.08,-0.177 l 0.007,-0.008 c -0.007,0.063 -0.031,0.128 -0.058,0.182 -0.036,0.03 -0.119,0.11 -0.199,0.183 m -1.131,-0.899 c 0.007,-0.012 0.013,-0.019 0.026,-0.046 0.054,-0.092 0.141,-0.172 0.233,-0.22 0.083,-0.062 -0.146,0.16 -0.259,0.266 m 76.468,160.356 c 0.985,-2.156 2.172,-4.562 3.179,-7.307 0.266,-0.68 0.538,-1.376 0.814,-2.086 0.241,-0.72 0.488,-1.454 0.739,-2.202 0.25,-0.748 0.506,-1.51 0.765,-2.282 0.22,-0.782 0.442,-1.58 0.668,-2.387 0.947,-3.221 1.657,-6.703 2.179,-10.334 0.473,-3.636 0.798,-7.427 0.727,-11.283 -0.004,-3.86 -0.343,-7.779 -0.994,-11.644 -0.645,-3.868 -1.608,-7.678 -2.827,-11.334 -1.201,-3.658 -2.597,-7.189 -4.18,-10.493 -3.112,-6.637 -6.831,-12.392 -10.159,-17.174 -3.335,-4.791 -6.424,-8.545 -8.54,-11.201 -1.874,-2.277 -3.051,-3.703 -3.327,-4.038 1.535,1.198 3.6,2.68 6.236,4.353 3.244,1.994 7.262,4.303 12.034,6.624 0.775,0.383 1.596,0.774 2.405,1.163 4.168,2.002 8.779,4.084 13.793,6.25 11.941,5.223 26.054,11.014 40.113,19.157 7.009,4.087 13.957,8.834 20.256,14.534 6.257,5.727 11.756,12.492 15.822,20.066 l 0.785,1.408 0.675,1.461 0.906,1.965 0.445,0.96 c 0.844,1.972 1.499,4.019 2.259,6.021 0.062,0.228 0.127,0.456 0.189,0.687 -0.565,-0.045 -1.184,-0.083 -1.882,-0.088 -1.635,0.108 -3.659,0.012 -5.913,0.509 -0.567,0.098 -1.154,0.199 -1.759,0.302 -0.584,0.183 -1.185,0.375 -1.802,0.572 -0.614,0.214 -1.274,0.359 -1.885,0.663 -0.61,0.309 -1.236,0.622 -1.874,0.944 -0.317,0.167 -0.649,0.313 -0.96,0.502 -0.297,0.212 -0.599,0.427 -0.9,0.643 -0.603,0.439 -1.245,0.852 -1.842,1.343 -1.103,1.076 -2.333,2.121 -3.291,3.46 -1.096,1.237 -1.905,2.72 -2.828,4.171 -0.771,1.532 -1.586,3.09 -2.19,4.761 -1.334,3.296 -2.325,6.822 -3.176,10.421 -0.872,3.597 -1.568,7.283 -2.276,10.952 -1.314,7.355 -2.612,14.702 -4.709,21.326 -1.109,3.274 -2.243,6.442 -3.803,9.193 -0.681,1.439 -1.615,2.663 -2.416,3.915 -0.411,0.622 -0.929,1.143 -1.374,1.702 -0.48,0.528 -0.869,1.132 -1.402,1.573 -1.968,1.921 -3.992,3.475 -5.964,4.559 -1.007,0.499 -1.904,1.077 -2.818,1.419 -0.921,0.339 -1.765,0.648 -2.527,0.93 -1.529,0.555 -2.811,0.727 -3.651,0.972 -0.855,0.206 -1.307,0.315 -1.307,0.315 0,0 0.449,-0.127 1.299,-0.361 0.42,-0.119 0.938,-0.263 1.549,-0.432 0.605,-0.18 1.316,-0.326 2.054,-0.681 0.745,-0.311 1.568,-0.657 2.465,-1.034 0.89,-0.377 1.757,-0.992 2.724,-1.526 1.891,-1.152 3.803,-2.768 5.602,-4.747 0.489,-0.451 0.836,-1.067 1.269,-1.604 0.402,-0.569 0.872,-1.095 1.236,-1.717 0.71,-1.266 1.539,-2.484 2.12,-3.92 1.353,-2.737 2.297,-5.881 3.148,-9.14 1.615,-6.589 2.427,-13.883 3.273,-21.343 0.438,-3.733 0.869,-7.505 1.507,-11.285 0.275,-1.884 0.701,-3.786 1.068,-5.659 0.49,-1.89 0.889,-3.758 1.538,-5.617 0.535,-1.858 1.347,-3.688 2.093,-5.486 0.937,-1.771 1.762,-3.545 2.981,-5.164 1.051,-1.682 2.474,-3.13 3.797,-4.563 0.711,-0.674 1.488,-1.268 2.226,-1.881 0.375,-0.302 0.749,-0.6 1.115,-0.893 0.384,-0.273 0.792,-0.496 1.183,-0.738 0.798,-0.472 1.581,-0.928 2.346,-1.378 0.771,-0.435 1.568,-0.69 2.333,-1.028 0.773,-0.306 1.526,-0.606 2.262,-0.892 0.735,-0.196 1.45,-0.382 2.141,-0.564 0.346,-0.104 0.683,-0.168 1.025,-0.252 -0.56,-1.058 -1.146,-2.103 -1.771,-3.124 -4.107,-6.789 -9.453,-12.728 -15.519,-17.751 -6.115,-4.995 -12.859,-9.139 -19.719,-12.703 -13.77,-7.113 -27.873,-12.039 -40.152,-16.692 -1.095,-0.411 -2.161,-0.817 -3.227,-1.223 0.401,1.015 0.796,2.046 1.183,3.091 1.37,3.688 2.529,7.616 3.459,11.65 0.947,4.028 1.607,8.196 1.922,12.37 0.351,4.172 0.371,8.353 0.04,12.408 -0.262,4.064 -0.93,7.999 -1.735,11.724 -0.464,1.854 -0.85,3.68 -1.419,5.417 -0.508,1.75 -1.042,3.442 -1.66,5.054 -0.296,0.809 -0.586,1.606 -0.872,2.389 -0.324,0.771 -0.641,1.527 -0.957,2.272 -0.312,0.74 -0.619,1.468 -0.921,2.182 -0.336,0.699 -0.665,1.384 -0.989,2.055 -1.241,2.701 -2.608,5.054 -3.741,7.158 -1.238,2.055 -2.311,3.837 -3.229,5.279 -1.907,2.832 -2.998,4.45 -2.998,4.45 0,0 0.983,-1.676 2.701,-4.605 0.814,-1.493 1.756,-3.329 2.837,-5.439 m 35.328,65.442 c 0.626,-0.114 1.362,-0.194 2.134,-0.48 0.787,-0.245 1.657,-0.518 2.602,-0.814 0.947,-0.302 1.887,-0.841 2.941,-1.302 2.069,-1 4.241,-2.494 6.325,-4.439 0.566,-0.443 0.985,-1.047 1.497,-1.58 0.478,-0.565 1.031,-1.094 1.475,-1.718 0.867,-1.262 1.869,-2.511 2.616,-3.963 1.694,-2.793 2.975,-5.998 4.113,-9.344 2.204,-6.73 3.587,-14.129 4.969,-21.463 0.672,-3.672 1.323,-7.344 2.152,-10.903 0.804,-3.565 1.747,-7.037 3.008,-10.252 0.566,-1.641 1.366,-3.13 2.048,-4.641 0.844,-1.413 1.578,-2.871 2.589,-4.073 0.879,-1.317 2.016,-2.335 3.04,-3.401 0.552,-0.485 1.155,-0.893 1.715,-1.333 l 0.844,-0.64 c 0.293,-0.193 0.607,-0.339 0.906,-0.506 0.603,-0.331 1.192,-0.65 1.772,-0.963 0.579,-0.312 1.212,-0.466 1.793,-0.705 0.588,-0.22 1.164,-0.435 1.723,-0.644 0.581,-0.129 1.149,-0.255 1.699,-0.376 2.187,-0.6 4.168,-0.6 5.783,-0.788 0.724,-0.024 1.367,-0.024 1.95,-0.018 0.487,1.763 0.983,3.521 1.421,5.289 0.174,0.957 0.361,1.911 0.542,2.864 0.216,1.137 0.428,2.27 0.602,3.411 0.227,2.109 0.452,4.211 0.676,6.303 0.144,2.115 0.291,4.219 0.435,6.313 0.292,4.184 0.578,8.317 0.859,12.385 0.544,8.132 1.141,15.993 1.782,23.444 0.655,7.45 1.331,14.494 2.318,20.959 0.429,3.24 1.07,6.313 1.656,9.239 0.382,1.444 0.757,2.849 1.119,4.217 0.331,1.376 0.899,2.644 1.315,3.907 1.859,5.006 4.5,8.943 7.185,11.662 1.449,1.246 2.65,2.469 3.927,3.24 1.22,0.835 2.237,1.58 3.158,2.028 1.787,0.984 2.739,1.508 2.739,1.508 0,0 -0.973,-0.493 -2.79,-1.42 -0.941,-0.42 -1.983,-1.132 -3.24,-1.936 -1.314,-0.732 -2.563,-1.927 -4.073,-3.147 -2.81,-2.668 -5.641,-6.607 -7.695,-11.646 -0.464,-1.269 -1.087,-2.552 -1.464,-3.931 -0.413,-1.377 -0.838,-2.792 -1.271,-4.243 -0.689,-2.932 -1.466,-6.026 -2.017,-9.269 -1.238,-6.488 -2.18,-13.54 -3.12,-20.988 -0.925,-7.446 -1.81,-15.304 -2.713,-23.409 -0.451,-4.057 -0.912,-8.178 -1.378,-12.351 -0.232,-2.089 -0.468,-4.186 -0.703,-6.296 -0.302,-1.984 -0.606,-3.978 -0.91,-5.979 -0.274,-1.49 -0.611,-2.967 -0.981,-4.431 -1.024,-0.01 -2.215,-0.144 -3.691,0.096 -0.424,0.039 -0.861,0.078 -1.313,0.119 -0.41,0.103 -0.832,0.209 -1.264,0.318 -0.427,0.122 -0.925,0.164 -1.344,0.34 -0.424,0.174 -0.855,0.35 -1.301,0.532 -0.221,0.093 -0.465,0.16 -0.683,0.271 l -0.63,0.392 c -0.42,0.266 -0.891,0.488 -1.327,0.792 -0.807,0.711 -1.754,1.324 -2.535,2.297 -0.889,0.822 -1.606,1.988 -2.438,3.082 -0.705,1.243 -1.51,2.463 -2.143,3.915 -0.721,1.368 -1.282,2.938 -1.922,4.471 -0.548,1.614 -1.157,3.213 -1.653,4.928 -1.065,3.375 -1.984,6.958 -2.923,10.567 -1.851,7.229 -3.722,14.681 -6.408,21.448 -1.395,3.365 -2.871,6.588 -4.766,9.399 -0.847,1.451 -1.954,2.705 -2.914,3.957 -0.491,0.62 -1.091,1.145 -1.613,1.7 -0.558,0.524 -1.019,1.118 -1.627,1.548 -2.254,1.891 -4.537,3.319 -6.688,4.255 -1.093,0.425 -2.067,0.926 -3.039,1.193 -0.967,0.257 -1.857,0.496 -2.66,0.708 -0.788,0.252 -1.532,0.303 -2.166,0.398 -0.634,0.083 -1.172,0.157 -1.609,0.218 -0.869,0.118 -1.331,0.18 -1.331,0.18 0,0 0.459,-0.078 1.323,-0.228 0.432,-0.074 0.964,-0.164 1.592,-0.273 M 335.48,323.537 c -0.319,-0.144 -0.623,-0.324 -0.957,-0.433 -0.331,-0.119 -0.648,-0.26 -0.986,-0.36 -0.671,-0.209 -1.351,-0.361 -2.04,-0.471 -0.692,-0.083 -1.384,-0.171 -2.083,-0.154 -0.696,-0.036 -1.394,0.041 -2.09,0.077 l -0.503,0.028 -0.217,-0.443 c -1.227,-2.484 -2.36,-5.005 -3.479,-7.53 -1.09,-2.54 -2.183,-5.078 -3.177,-7.659 -1.024,-2.567 -1.933,-5.183 -2.811,-7.809 -0.444,-1.31 -0.85,-2.638 -1.184,-3.987 -0.168,-0.674 -0.334,-1.35 -0.462,-2.034 -0.107,-0.674 -0.269,-1.399 -0.075,-2.074 -0.09,0.685 0.205,1.343 0.384,1.997 0.208,0.652 0.446,1.297 0.694,1.938 l 1.557,3.819 c 1.05,2.543 2.199,5.048 3.276,7.58 l 6.403,14.712 c 0.582,-0.019 1.16,-0.045 1.743,0.016 0.757,0.035 1.508,0.177 2.249,0.318 0.741,0.168 1.468,0.383 2.174,0.657 0.356,0.128 0.693,0.303 1.039,0.456 0.348,0.144 0.666,0.359 0.998,0.534 0.336,0.174 0.631,0.411 0.947,0.617 0.316,0.199 0.596,0.459 0.885,0.699 0.565,0.495 1.073,1.049 1.537,1.632 0.454,0.594 0.858,1.224 1.17,1.895 0.333,0.665 0.518,1.393 0.632,2.108 -0.216,-0.704 -0.512,-1.357 -0.899,-1.964 -0.367,-0.613 -0.822,-1.172 -1.309,-1.687 -0.501,-0.506 -1.037,-0.975 -1.615,-1.379 -0.577,-0.407 -1.172,-0.785 -1.801,-1.099 m 10.73,19.124 c 0.074,-0.526 0.134,-1.084 0.177,-1.675 0.374,0.504 0.769,1.028 1.209,1.583 1.008,1.224 2.175,2.571 3.512,3.989 1.326,1.428 2.849,2.896 4.443,4.457 1.622,1.541 3.372,3.121 5.192,4.748 1.814,1.635 3.774,3.228 5.723,4.898 1.964,1.651 3.991,3.294 6.045,4.902 2.026,1.642 4.093,3.241 6.137,4.793 2.059,1.538 4.058,3.093 6.042,4.527 3.949,2.896 7.688,5.534 10.927,7.743 3.257,2.19 6.017,3.95 7.989,5.124 0.99,0.564 1.762,1.047 2.311,1.332 0.543,0.297 0.834,0.456 0.834,0.456 0,0 -0.315,-0.102 -0.902,-0.295 -0.59,-0.184 -1.448,-0.482 -2.53,-0.909 -2.153,-0.855 -5.175,-2.216 -8.672,-4.101 -1.745,-0.944 -3.627,-1.984 -5.564,-3.166 -1.949,-1.171 -3.991,-2.429 -6.047,-3.814 -2.057,-1.381 -4.188,-2.806 -6.279,-4.352 -2.098,-1.544 -4.213,-3.13 -6.29,-4.765 -2.064,-1.657 -4.093,-3.359 -6.065,-5.061 -1.976,-1.696 -3.841,-3.465 -5.629,-5.19 -1.797,-1.717 -3.447,-3.47 -4.98,-5.162 -1.531,-1.694 -2.925,-3.344 -4.125,-4.946 -1.231,-1.573 -2.244,-3.106 -3.102,-4.487 -0.136,-0.22 -0.231,-0.416 -0.356,-0.629 m 51.474,21.643 c 0,0 -0.106,-0.22 -0.307,-0.631 -0.221,-0.399 -0.457,-1.037 -0.915,-1.753 -0.449,-0.72 -0.926,-1.619 -1.651,-2.56 -0.665,-0.969 -1.498,-2.006 -2.415,-3.128 -0.893,-1.132 -1.995,-2.261 -3.125,-3.467 -1.198,-1.15 -2.429,-2.383 -3.813,-3.545 -1.323,-1.23 -2.849,-2.308 -4.329,-3.485 -0.754,-0.565 -1.566,-1.072 -2.352,-1.618 -0.785,-0.546 -1.585,-1.079 -2.429,-1.535 l -2.479,-1.458 c -0.859,-0.422 -1.712,-0.841 -2.561,-1.257 -1.669,-0.89 -3.444,-1.469 -5.102,-2.166 -1.701,-0.581 -3.377,-1.064 -4.958,-1.551 -1.62,-0.331 -3.153,-0.642 -4.568,-0.932 -1.437,-0.137 -2.758,-0.297 -3.932,-0.442 -1.174,-0.171 -2.205,-0.071 -3.053,-0.114 -1.706,-0.04 -2.68,-0.064 -2.68,-0.064 0,0 0.971,-0.093 2.672,-0.255 0.85,-0.037 1.889,-0.237 3.084,-0.179 1.192,0.027 2.545,0.06 4.02,0.134 1.464,0.212 3.049,0.441 4.722,0.683 1.642,0.399 3.4,0.783 5.162,1.352 1.721,0.675 3.585,1.183 5.305,2.096 0.879,0.421 1.764,0.845 2.652,1.269 l 2.562,1.478 c 0.867,0.478 1.683,1.032 2.484,1.602 0.802,0.567 1.628,1.098 2.398,1.688 1.52,1.212 3.026,2.39 4.348,3.682 1.394,1.213 2.569,2.568 3.721,3.804 1.084,1.298 2.133,2.505 2.981,3.716 0.426,0.6 0.835,1.177 1.222,1.726 0.359,0.568 0.668,1.128 0.976,1.64 0.636,1.01 1.047,1.991 1.43,2.755 0.402,0.762 0.528,1.43 0.705,1.852 0.146,0.433 0.225,0.663 0.225,0.663 m -84.322,-64.197 2.496,8.987 c 0.83,2.996 1.68,5.987 2.573,8.962 l 0.682,2.223 0.357,1.087 0.04,0.113 c -0.005,-0.006 0,0.003 0.007,0.017 0.046,0.044 0.052,0.05 10e-4,0.007 0.006,0.015 0.006,0.018 -0.005,-0.005 -0.006,-0.005 0.002,0.002 -0.006,-0.005 l 0.005,0.018 c 0.015,0.029 0.14,0.41 0.086,0.61 l -0.036,0.201 -0.154,0.602 c -0.429,1.533 -0.906,3.009 -1.384,4.499 l -2.909,8.438 c 2.296,1.211 4.594,2.421 6.869,3.675 2.41,1.316 4.828,2.616 7.22,3.968 -2.511,-1.116 -4.996,-2.28 -7.49,-3.431 -2.495,-1.141 -4.971,-2.328 -7.444,-3.514 l -0.384,-0.185 0.132,-0.428 2.687,-8.937 c 0.451,-1.488 0.912,-2.981 1.304,-4.454 l 0.127,-0.531 c 10e-4,-0.005 0.003,-0.018 0.006,-0.031 l -0.05,-0.131 -0.384,-1.128 -0.719,-2.233 c -1.88,-5.954 -3.599,-11.95 -5.11,-18.007 -0.77,-3.023 -1.502,-6.056 -2.189,-9.101 -0.698,-3.043 -1.258,-6.12 -1.782,-9.201 -0.496,-3.084 -0.977,-6.18 -1.116,-9.318 -0.073,-1.565 -0.087,-3.141 0.095,-4.707 0.102,-0.78 0.246,-1.57 0.576,-2.3 0.189,-0.349 0.386,-0.713 0.717,-0.953 0.316,-0.249 0.722,-0.355 1.11,-0.326 -0.828,-0.02 -1.399,0.65 -1.639,1.358 -0.247,0.721 -0.35,1.487 -0.4,2.253 -0.076,1.539 0.036,3.085 0.208,4.622 0.375,3.074 0.889,6.133 1.524,9.171 0.622,3.042 1.371,6.058 2.083,9.081 0.721,3.022 1.494,6.032 2.296,9.034 m -7,-48.626 c -0.288,0.767 -0.877,1.56 -1.732,2.062 -0.428,0.256 -0.885,0.431 -1.411,0.553 -0.448,0.1 -0.962,0.155 -1.417,0.219 -0.955,0.132 -1.931,0.185 -2.927,0.257 -0.995,0.062 -2.005,0.077 -3.015,0.094 -1.013,0.027 -2.024,-0.022 -3.02,-0.049 -0.992,-0.027 -1.985,-0.12 -2.974,-0.232 -0.489,-0.052 -0.926,-0.15 -1.377,-0.235 -0.536,-0.139 -0.944,-0.26 -1.402,-0.478 -0.898,-0.359 -1.678,-1.222 -1.858,-2.073 -0.227,-0.843 -0.126,-1.581 -0.038,-2.204 0.106,-0.625 0.241,-1.147 0.367,-1.576 0.253,-0.852 0.451,-1.316 0.451,-1.316 0,0 -0.054,0.501 -0.144,1.378 -0.048,0.432 -0.086,0.963 -0.077,1.558 0.015,0.589 0.077,1.264 0.318,1.86 0.24,0.605 0.731,1.012 1.449,1.261 0.334,0.128 0.79,0.214 1.134,0.274 0.452,0.027 0.924,0.104 1.374,0.12 0.885,0.045 1.833,0.045 2.819,0.069 0.979,0.005 1.974,0.008 2.972,0.014 1.991,0.007 3.988,-0.009 5.839,-0.053 0.48,-0.014 0.894,-0.005 1.337,-0.075 0.362,-0.052 0.75,-0.174 1.082,-0.323 0.68,-0.3 1.191,-0.838 1.501,-1.444 0.664,-1.221 0.664,-2.536 0.571,-3.371 -0.047,-0.426 -0.127,-0.759 -0.215,-0.976 -0.082,-0.22 -0.193,-0.292 -0.193,-0.292 0,0 0.126,0.05 0.257,0.259 0.131,0.2 0.292,0.523 0.417,0.955 0.22,0.859 0.463,2.194 -0.088,3.764 m -21.534,13.433 c 0.328,0.242 0.524,0.606 0.71,0.955 0.329,0.729 0.474,1.518 0.574,2.298 0.181,1.566 0.166,3.142 0.091,4.707 -0.143,3.136 -0.613,6.232 -1.118,9.317 -1.007,6.17 -2.419,12.257 -3.966,18.302 -1.521,6.053 -3.199,12.063 -5.093,18.011 l -0.713,2.233 -0.387,1.13 -0.049,0.126 c 0.003,0.013 0.007,0.026 0.007,0.028 l 0.128,0.531 c 0.39,1.471 0.852,2.967 1.303,4.45 l 2.724,8.927 0.157,0.513 -0.478,0.18 c -3.086,1.163 -6.156,2.377 -9.258,3.501 -3.102,1.13 -6.191,2.291 -9.309,3.381 3.002,-1.378 6.034,-2.683 9.052,-4.018 2.855,-1.267 5.738,-2.463 8.61,-3.692 -0.967,-2.782 -1.961,-5.555 -2.847,-8.368 -0.474,-1.49 -0.951,-2.964 -1.383,-4.495 l -0.151,-0.606 -0.038,-0.202 c -0.056,-0.204 0.072,-0.59 0.087,-0.618 l 0.004,-0.02 c -0.006,0.007 0,0 -0.006,0.005 -0.011,0.028 -0.011,0.021 -0.003,0.005 -0.058,0.051 -0.047,0.042 0.003,-0.01 0.004,-0.009 0.007,-0.015 0.002,-0.009 l 0.044,-0.115 0.354,-1.087 0.684,-2.221 c 0.895,-2.974 1.737,-5.966 2.582,-8.959 0.866,-2.987 1.705,-5.98 2.505,-8.984 0.805,-3.004 1.574,-6.013 2.294,-9.036 0.74,-3.017 1.466,-6.038 2.089,-9.079 0.631,-3.039 1.155,-6.099 1.525,-9.173 0.171,-1.538 0.282,-3.084 0.202,-4.623 -0.052,-0.766 -0.155,-1.534 -0.402,-2.255 -0.241,-0.708 -0.812,-1.377 -1.641,-1.356 0.386,-0.027 0.792,0.079 1.111,0.326 m -22.211,64.752 c 1.362,0 2.466,1.103 2.466,2.466 0,1.361 -1.104,2.466 -2.466,2.466 -1.361,0 -2.466,-1.105 -2.466,-2.466 0,-1.363 1.105,-2.466 2.466,-2.466 m 14.241,-36.904 c -0.129,0.684 -0.292,1.36 -0.462,2.034 -0.333,1.349 -0.737,2.677 -1.182,3.987 -0.88,2.626 -1.785,5.242 -2.813,7.809 -0.992,2.581 -2.086,5.119 -3.175,7.659 -1.122,2.525 -2.251,5.046 -3.478,7.53 l -0.219,0.443 -0.502,-0.028 c -0.695,-0.036 -1.392,-0.113 -2.09,-0.077 -0.699,-0.017 -1.389,0.071 -2.083,0.154 -0.689,0.11 -1.371,0.262 -2.041,0.471 -0.336,0.1 -0.656,0.241 -0.987,0.36 -0.332,0.111 -0.636,0.289 -0.957,0.433 -0.629,0.314 -1.222,0.692 -1.798,1.099 -0.579,0.404 -1.114,0.873 -1.615,1.379 -0.488,0.515 -0.944,1.074 -1.313,1.687 -0.384,0.607 -0.68,1.26 -0.896,1.964 0.115,-0.715 0.298,-1.443 0.632,-2.108 0.312,-0.671 0.716,-1.301 1.171,-1.895 0.464,-0.583 0.971,-1.137 1.536,-1.632 0.289,-0.24 0.565,-0.5 0.887,-0.699 0.313,-0.206 0.61,-0.443 0.945,-0.617 0.334,-0.175 0.647,-0.39 0.997,-0.534 0.347,-0.153 0.685,-0.327 1.039,-0.456 0.706,-0.274 1.434,-0.489 2.176,-0.657 0.741,-0.141 1.493,-0.283 2.251,-0.318 0.581,-0.061 1.159,-0.035 1.74,-0.016 l 6.402,-14.712 c 1.079,-2.532 2.228,-5.037 3.278,-7.58 l 1.555,-3.819 c 0.248,-0.641 0.489,-1.286 0.696,-1.938 0.177,-0.654 0.473,-1.312 0.384,-1.997 0.192,0.675 0.032,1.4 -0.078,2.074 m -17.696,75.401 c -0.488,-0.895 -1.049,-1.751 -1.474,-2.676 -0.43,-0.924 -0.915,-1.817 -1.249,-2.778 -0.373,-0.947 -0.745,-1.888 -1.034,-2.86 -0.331,-0.954 -0.6,-1.931 -0.849,-2.911 -0.281,-0.972 -0.421,-1.967 -0.638,-2.953 0.305,0.956 0.559,1.94 0.914,2.877 0.316,0.951 0.653,1.893 1.048,2.815 0.357,0.935 0.792,1.837 1.222,2.737 0.405,0.912 0.923,1.768 1.379,2.652 0.455,0.887 1.04,1.693 1.554,2.543 0.533,0.833 1.171,1.6 1.75,2.398 0.617,0.77 1.308,1.475 1.954,2.217 0.7,0.694 1.451,1.323 2.157,2.006 0.764,0.608 1.562,1.176 2.34,1.767 0.835,0.506 1.693,0.97 2.535,1.461 0.885,0.404 1.8,0.745 2.697,1.126 0.918,0.319 1.878,0.505 2.814,0.771 0.936,0.274 1.93,0.274 2.89,0.424 0.965,0.169 1.944,0.129 2.926,0.139 0.977,0.008 1.96,0.051 2.934,-0.112 l 2.311,-0.266 0.054,-7.421 c 0.019,-2.698 0.111,-5.399 0.161,-8.099 0.071,-2.701 0.094,-5.4 0.213,-8.099 0.105,-2.702 0.182,-5.4 0.33,-8.102 0.149,2.702 0.227,5.4 0.331,8.102 0.117,2.699 0.14,5.398 0.212,8.099 0.05,2.7 0.144,5.401 0.162,8.099 l 0.06,8.102 0.005,0.67 -0.636,0.082 -3.055,0.398 c -1.016,0.181 -2.052,0.157 -3.082,0.168 -1.034,0.007 -2.069,0.06 -3.095,-0.141 -1.021,-0.173 -2.067,-0.199 -3.066,-0.5 -0.996,-0.294 -2.013,-0.511 -2.987,-0.868 -0.95,-0.414 -1.92,-0.793 -2.852,-1.241 -0.892,-0.528 -1.797,-1.04 -2.67,-1.593 -0.817,-0.633 -1.655,-1.247 -2.45,-1.902 -0.741,-0.72 -1.491,-1.426 -2.189,-2.181 -0.643,-0.802 -1.328,-1.57 -1.93,-2.395 -0.563,-0.856 -1.183,-1.673 -1.697,-2.555 m 38.35,12.723 0.032,-0.696 0.386,-8.098 c 0.128,-2.698 0.329,-5.398 0.486,-8.092 0.182,-2.698 0.313,-5.397 0.538,-8.094 0.212,-2.695 0.4,-5.392 0.656,-8.087 0.039,2.704 0.01,5.41 0.005,8.112 0.01,2.707 -0.075,5.407 -0.114,8.111 -0.058,2.704 -0.071,5.406 -0.162,8.108 l -0.243,7.394 2.282,0.262 c 0.976,0.163 1.956,0.12 2.935,0.112 0.981,-0.01 1.962,0.03 2.925,-0.139 0.96,-0.15 1.953,-0.15 2.889,-0.424 0.937,-0.266 1.901,-0.452 2.816,-0.771 0.896,-0.381 1.813,-0.722 2.698,-1.126 0.84,-0.491 1.698,-0.955 2.533,-1.461 0.779,-0.591 1.577,-1.159 2.343,-1.767 0.701,-0.683 1.454,-1.312 2.153,-2.006 0.648,-0.742 1.34,-1.447 1.957,-2.217 0.578,-0.798 1.215,-1.563 1.75,-2.398 0.512,-0.85 1.098,-1.656 1.551,-2.543 0.458,-0.884 0.974,-1.737 1.379,-2.652 0.431,-0.899 0.869,-1.802 1.223,-2.737 0.397,-0.922 0.733,-1.864 1.049,-2.815 0.355,-0.937 0.607,-1.921 0.915,-2.877 -0.219,0.986 -0.358,1.981 -0.64,2.954 -0.248,0.979 -0.519,1.956 -0.848,2.91 -0.289,0.972 -0.663,1.913 -1.032,2.86 -0.336,0.961 -0.822,1.856 -1.251,2.778 -0.426,0.925 -0.988,1.781 -1.476,2.676 -0.511,0.882 -1.131,1.699 -1.695,2.555 -0.604,0.825 -1.288,1.593 -1.932,2.395 -0.695,0.755 -1.446,1.465 -2.188,2.181 -0.795,0.655 -1.633,1.269 -2.449,1.902 -0.874,0.553 -1.779,1.065 -2.67,1.593 -0.931,0.448 -1.901,0.827 -2.851,1.241 -0.974,0.357 -1.993,0.574 -2.989,0.868 -0.996,0.301 -2.044,0.327 -3.066,0.5 -1.026,0.201 -2.061,0.148 -3.094,0.141 -1.032,-0.011 -2.068,0.013 -3.083,-0.167 l -3.055,-0.399 z m 34.158,-46.288 c -1.361,0 -2.466,-1.105 -2.466,-2.466 0,-1.363 1.105,-2.466 2.466,-2.466 1.36,0 2.467,1.103 2.467,2.466 0,1.361 -1.107,2.466 -2.467,2.466 m -89.549,3.99 c 0,0.436 0.013,0.853 0.03,1.269 -0.465,1.007 -1.045,2.164 -1.83,3.433 -0.856,1.381 -1.869,2.914 -3.1,4.487 -1.198,1.602 -2.595,3.252 -4.123,4.946 -1.535,1.692 -3.186,3.445 -4.982,5.162 -1.787,1.729 -3.653,3.494 -5.63,5.19 -1.973,1.705 -3.999,3.404 -6.064,5.061 -2.077,1.635 -4.195,3.221 -6.29,4.765 -2.092,1.546 -4.223,2.971 -6.281,4.352 -2.055,1.385 -4.096,2.643 -6.043,3.814 -1.94,1.182 -3.822,2.224 -5.569,3.166 -3.493,1.885 -6.518,3.246 -8.67,4.101 -1.082,0.427 -1.939,0.725 -2.53,0.909 -0.587,0.193 -0.899,0.295 -0.899,0.295 0,0 0.289,-0.159 0.829,-0.456 0.552,-0.285 1.323,-0.768 2.315,-1.332 1.971,-1.174 4.733,-2.934 7.984,-5.124 3.245,-2.209 6.981,-4.847 10.929,-7.743 1.988,-1.434 3.985,-2.989 6.043,-4.527 2.046,-1.552 4.112,-3.149 6.137,-4.793 2.055,-1.608 4.081,-3.251 6.046,-4.902 1.948,-1.67 3.908,-3.263 5.721,-4.898 1.822,-1.627 3.572,-3.207 5.192,-4.748 1.596,-1.561 3.12,-3.029 4.444,-4.457 1.338,-1.418 2.507,-2.765 3.51,-3.989 0.984,-1.239 1.797,-2.355 2.423,-3.308 0.141,-0.24 0.276,-0.461 0.408,-0.673 m -2.267,-3.99 c 0,0 -0.977,0.024 -2.683,0.064 -0.848,0.043 -1.88,-0.057 -3.052,0.114 -1.176,0.145 -2.495,0.305 -3.932,0.442 -1.415,0.29 -2.95,0.601 -4.571,0.932 -1.58,0.487 -3.255,0.97 -4.955,1.551 -1.66,0.697 -3.432,1.276 -5.102,2.166 -0.85,0.416 -1.703,0.835 -2.561,1.257 l -2.479,1.458 c -0.847,0.456 -1.644,0.989 -2.43,1.535 -0.788,0.546 -1.595,1.053 -2.353,1.618 -1.481,1.177 -3.006,2.255 -4.329,3.485 -1.382,1.162 -2.614,2.395 -3.811,3.545 -1.131,1.206 -2.232,2.335 -3.126,3.467 -0.917,1.122 -1.75,2.159 -2.413,3.128 -0.726,0.941 -1.204,1.84 -1.654,2.56 -0.456,0.716 -0.694,1.354 -0.914,1.753 -0.2,0.411 -0.306,0.631 -0.306,0.631 0,0 0.077,-0.23 0.226,-0.663 0.175,-0.422 0.3,-1.09 0.703,-1.852 0.381,-0.764 0.792,-1.745 1.429,-2.755 0.307,-0.512 0.618,-1.072 0.978,-1.64 0.388,-0.549 0.796,-1.126 1.222,-1.726 0.846,-1.211 1.898,-2.418 2.981,-3.716 1.15,-1.236 2.325,-2.591 3.72,-3.804 1.325,-1.292 2.831,-2.47 4.347,-3.682 0.77,-0.59 1.595,-1.121 2.398,-1.688 0.803,-0.57 1.619,-1.124 2.485,-1.602 l 2.563,-1.478 c 0.888,-0.424 1.772,-0.848 2.651,-1.269 1.722,-0.913 3.585,-1.421 5.306,-2.096 1.762,-0.569 3.519,-0.953 5.161,-1.352 1.674,-0.242 3.259,-0.471 4.723,-0.683 1.474,-0.074 2.827,-0.107 4.019,-0.134 1.193,-0.058 2.235,0.142 3.087,0.179 1.699,0.162 2.672,0.255 2.672,0.255 m 234.853,245.105 c 0,0 -0.923,-0.578 -2.649,-1.657 -0.89,-0.498 -1.861,-1.296 -3.022,-2.19 -1.219,-0.827 -2.331,-2.108 -3.677,-3.398 -2.468,-2.809 -4.789,-6.738 -6.314,-11.688 -0.334,-1.255 -0.816,-2.492 -1.058,-3.863 -0.281,-1.355 -0.567,-2.745 -0.861,-4.171 -0.412,-2.913 -0.896,-5.944 -1.154,-9.174 -0.644,-6.419 -0.96,-13.452 -1.235,-20.895 -0.258,-7.453 -0.444,-15.32 -0.626,-23.479 -0.091,-4.08 -0.188,-8.227 -0.279,-12.424 -0.05,-2.098 -0.099,-4.212 -0.144,-6.332 -0.14,-2.235 -0.28,-4.483 -0.421,-6.737 -0.245,-2.258 -0.621,-4.518 -0.937,-6.798 -0.454,-2.261 -0.998,-4.522 -1.523,-6.795 -0.724,-2.217 -1.35,-4.489 -2.184,-6.689 l -1.344,-3.278 -0.677,-1.641 -0.795,-1.586 c -4.157,-8.523 -9.964,-16.232 -16.54,-22.735 -6.612,-6.472 -13.875,-11.849 -21.105,-16.46 -7.238,-4.614 -14.46,-8.487 -21.293,-11.941 -6.838,-3.453 -13.301,-6.488 -19.14,-9.3 -5.84,-2.807 -11.057,-5.392 -15.484,-7.775 -4.458,-2.363 -7.994,-4.594 -10.779,-6.454 -0.668,-0.475 -1.301,-0.927 -1.897,-1.35 -0.287,-0.207 -0.61,-0.419 -0.84,-0.605 -0.222,-0.181 -0.434,-0.356 -0.638,-0.523 -0.411,-0.331 -0.79,-0.635 -1.139,-0.914 -0.181,-0.143 -0.352,-0.28 -0.516,-0.41 -0.212,-0.189 -0.412,-0.373 -0.601,-0.543 -0.063,-0.057 -0.105,-0.095 -0.165,-0.15 0.663,-1.159 1.297,-2.327 1.913,-3.497 1.019,-1.93 1.967,-3.856 2.844,-5.745 0.077,0.074 0.156,0.151 0.234,0.224 14.849,14.293 47.213,36.379 74.583,37.11 -10.895,-24.452 -14.066,-65.144 -67.013,-67.564 -0.904,-0.041 -1.854,-0.046 -2.785,-0.065 -1.118,-5.569 -3.177,-11.425 -6.468,-16.219 -9.591,-13.975 -21.926,-33.431 -21.926,-54.255 0,-19.505 -8.685,-21.222 -20.194,-21.811 v -0.11 c -1.642,0.018 -1.244,0.035 -1.642,0.052 -0.402,-0.017 -1.644,-0.034 -1.644,-0.052 v 0.11 c -11.509,0.589 -21.119,2.306 -21.119,21.811 0,20.824 -12.922,40.28 -22.513,54.255 -3.282,4.781 -5.469,10.62 -6.615,16.179 -0.96,0.003 -1.936,0.037 -2.866,0.064 -54.6,1.609 -57.776,42.891 -68.788,67.605 28.082,-0.751 61.413,-23.981 75.697,-38.21 0.09,-0.092 0.17,-0.181 0.261,-0.271 1.02,2.258 2.155,4.583 3.38,6.91 0.581,1.099 1.175,2.198 1.795,3.286 -0.128,0.119 -0.236,0.216 -0.379,0.343 -0.189,0.17 -0.39,0.354 -0.602,0.543 -0.162,0.13 -0.336,0.267 -0.515,0.41 -0.347,0.279 -0.727,0.583 -1.139,0.914 -0.205,0.167 -0.417,0.342 -0.637,0.523 -0.233,0.186 -0.553,0.398 -0.842,0.605 -0.593,0.423 -1.226,0.875 -1.894,1.35 -2.787,1.86 -6.322,4.091 -10.781,6.454 -4.427,2.383 -9.641,4.968 -15.486,7.775 -5.838,2.812 -12.301,5.847 -19.138,9.3 -6.835,3.454 -14.055,7.327 -21.294,11.941 -7.227,4.611 -14.491,9.988 -21.105,16.46 -6.576,6.503 -12.384,14.212 -16.541,22.735 l -0.793,1.586 -0.677,1.641 -1.342,3.278 c -0.837,2.2 -1.465,4.472 -2.187,6.689 -0.524,2.273 -1.07,4.534 -1.522,6.795 -0.315,2.28 -0.694,4.54 -0.935,6.798 -0.141,2.254 -0.282,4.502 -0.42,6.737 -0.049,2.12 -0.098,4.234 -0.145,6.332 -0.095,4.197 -0.189,8.344 -0.281,12.424 -0.181,8.159 -0.368,16.026 -0.628,23.479 -0.274,7.443 -0.587,14.476 -1.234,20.895 -0.256,3.23 -0.742,6.261 -1.155,9.174 -0.292,1.426 -0.581,2.816 -0.857,4.171 -0.247,1.371 -0.727,2.608 -1.061,3.863 -1.524,4.95 -3.846,8.879 -6.317,11.688 -1.34,1.29 -2.458,2.571 -3.675,3.398 -1.159,0.894 -2.13,1.692 -3.02,2.19 -1.727,1.079 -2.648,1.657 -2.648,1.657 0,0 0.939,-0.546 2.7,-1.569 0.91,-0.467 1.909,-1.235 3.103,-2.098 1.252,-0.792 2.415,-2.039 3.821,-3.302 2.595,-2.759 5.106,-6.692 6.824,-11.673 1.785,-4.96 2.877,-10.849 3.733,-17.29 0.897,-6.442 1.483,-13.481 2.04,-20.924 0.494,-7.453 1.017,-15.314 1.555,-23.446 0.263,-4.067 0.533,-8.203 0.802,-12.388 0.139,-2.092 0.273,-4.199 0.411,-6.315 0.219,-2.127 0.439,-4.267 0.657,-6.412 0.278,-2.084 0.647,-4.168 1.102,-6.241 l 0.009,0.335 c 0.371,-1.689 0.817,-3.008 1.309,-4.652 h -0.177 c -0.828,0 -1.279,-0.212 -1.326,-0.226 l -0.018,-0.478 c 0,0 0.467,-0.061 1.341,-0.128 0.064,-0.003 0.144,-0.026 0.208,-0.029 0.8,-2.702 1.754,-5.374 2.874,-7.971 0.8,-1.852 1.67,-3.676 2.637,-5.452 4.197,-7.738 9.852,-14.625 16.237,-20.422 6.43,-5.767 13.486,-10.542 20.572,-14.633 7.088,-4.104 14.241,-7.489 21.076,-10.531 6.841,-3.036 13.382,-5.717 19.39,-8.243 5.356,-2.256 10.272,-4.349 14.681,-6.359 0.54,-0.244 1.101,-0.495 1.623,-0.737 4.812,-2.206 8.868,-4.414 12.146,-6.328 2.706,-1.631 4.817,-3.076 6.384,-4.245 0.088,-0.066 0.169,-0.129 0.253,-0.191 0.02,0.024 0.038,0.048 0.055,0.072 -0.075,0.06 -0.149,0.119 -0.226,0.18 -0.024,0.017 -0.045,0.035 -0.066,0.052 -0.224,0.308 -1.32,1.81 -3.096,4.248 -2.01,2.732 -4.837,6.674 -8.027,11.521 -1.606,2.416 -3.25,5.096 -4.89,7.98 -1.658,2.874 -3.208,6.009 -4.742,9.276 -1.527,3.273 -2.867,6.76 -4.012,10.364 -1.163,3.602 -2.07,7.346 -2.665,11.138 -0.665,3.776 -1.041,7.607 -1.078,11.388 -0.109,3.781 0.175,7.503 0.602,11.08 0.27,1.782 0.488,3.54 0.85,5.241 0.306,1.708 0.647,3.374 1.077,4.974 0.199,0.806 0.398,1.596 0.591,2.379 0.234,0.768 0.464,1.525 0.69,2.273 0.229,0.749 0.45,1.481 0.668,2.2 0.254,0.71 0.501,1.405 0.745,2.087 0.935,2.744 1.998,5.18 2.869,7.373 0.973,2.147 1.826,4.023 2.561,5.545 1.541,3.027 2.421,4.756 2.421,4.756 0,0 -0.774,-1.785 -2.122,-4.906 -0.633,-1.577 -1.354,-3.51 -2.173,-5.709 -0.717,-2.245 -1.603,-4.734 -2.303,-7.524 -0.187,-0.691 -0.376,-1.397 -0.57,-2.113 -0.159,-0.729 -0.32,-1.471 -0.484,-2.224 -0.164,-0.75 -0.332,-1.512 -0.501,-2.288 -0.128,-0.778 -0.257,-1.573 -0.39,-2.374 -0.294,-1.598 -0.492,-3.248 -0.657,-4.934 -0.228,-1.676 -0.26,-3.407 -0.367,-5.143 -0.095,-3.487 -0.034,-7.066 0.406,-10.64 0.373,-3.577 1.066,-7.151 2.029,-10.625 0.927,-3.484 2.139,-6.869 3.571,-10.096 1.416,-3.23 2.993,-6.321 4.734,-9.209 1.73,-2.89 3.509,-5.62 5.363,-8.128 1.842,-2.511 3.659,-4.839 5.432,-6.951 3.513,-4.228 6.711,-7.655 8.975,-10.093 0.025,-0.028 0.048,-0.052 0.074,-0.079 0.534,-0.361 1.077,-0.727 1.553,-1.051 0.327,-0.222 0.637,-0.438 0.933,-0.643 0.226,-0.173 0.441,-0.334 0.645,-0.489 0.17,-0.127 0.292,-0.221 0.442,-0.336 9.108,5.145 21.907,1.252 25.853,-0.165 3.918,1.411 16.571,5.255 25.665,0.268 0.107,0.082 0.19,0.144 0.307,0.233 0.204,0.155 0.419,0.316 0.647,0.489 0.297,0.205 0.606,0.421 0.931,0.643 0.475,0.324 1.018,0.69 1.555,1.051 0.023,0.027 0.045,0.051 0.073,0.079 2.263,2.438 5.463,5.865 8.975,10.093 1.774,2.112 3.59,4.44 5.43,6.951 1.855,2.508 3.634,5.238 5.367,8.128 1.74,2.888 3.316,5.979 4.734,9.209 1.431,3.227 2.639,6.612 3.57,10.096 0.964,3.474 1.655,7.048 2.028,10.625 0.442,3.574 0.501,7.153 0.405,10.64 -0.106,1.736 -0.14,3.467 -0.365,5.143 -0.164,1.686 -0.363,3.336 -0.658,4.934 -0.134,0.801 -0.264,1.596 -0.391,2.374 -0.169,0.776 -0.335,1.538 -0.501,2.288 -0.162,0.753 -0.322,1.495 -0.482,2.224 -0.194,0.716 -0.384,1.422 -0.57,2.113 -0.698,2.79 -1.585,5.279 -2.304,7.524 -0.82,2.199 -1.54,4.132 -2.171,5.709 -1.35,3.121 -2.123,4.906 -2.123,4.906 0,0 0.879,-1.729 2.418,-4.756 0.739,-1.522 1.588,-3.398 2.563,-5.545 0.87,-2.193 1.934,-4.629 2.868,-7.373 0.244,-0.682 0.491,-1.377 0.745,-2.087 0.218,-0.719 0.442,-1.451 0.669,-2.2 0.224,-0.748 0.454,-1.505 0.69,-2.273 0.195,-0.783 0.392,-1.573 0.593,-2.379 0.429,-1.6 0.769,-3.266 1.075,-4.974 0.363,-1.701 0.578,-3.459 0.848,-5.241 0.429,-3.577 0.712,-7.299 0.604,-11.08 -0.037,-3.781 -0.413,-7.612 -1.076,-11.388 -0.598,-3.792 -1.504,-7.536 -2.665,-11.138 -1.148,-3.604 -2.485,-7.091 -4.016,-10.364 -1.53,-3.267 -3.083,-6.402 -4.741,-9.276 -1.642,-2.884 -3.285,-5.564 -4.888,-7.98 -3.194,-4.847 -6.018,-8.789 -8.03,-11.521 -1.772,-2.438 -2.869,-3.94 -3.093,-4.248 -0.023,-0.017 -0.042,-0.035 -0.067,-0.052 -0.01,-0.006 -0.017,-0.016 -0.025,-0.019 -0.296,-0.233 -0.608,-0.472 -0.86,-0.681 -1.552,-1.317 -2.382,-2.018 -2.382,-2.018 0,0 0.846,0.683 2.429,1.964 0.259,0.198 0.571,0.432 0.87,0.654 0.016,0.013 0.031,0.027 0.048,0.039 1.57,1.169 3.679,2.614 6.384,4.245 3.282,1.914 7.336,4.122 12.147,6.328 0.523,0.242 1.084,0.493 1.623,0.737 4.409,2.01 9.326,4.103 14.679,6.359 6.013,2.526 12.551,5.207 19.392,8.243 6.836,3.042 13.989,6.426 21.077,10.529 7.084,4.093 14.141,8.864 20.57,14.635 6.386,5.796 12.042,12.681 16.238,20.419 0.966,1.773 1.838,3.593 2.636,5.443 1.122,2.601 2.075,5.266 2.872,7.97 0.068,0.006 0.151,0.013 0.214,0.016 0.871,0.068 1.337,0.103 1.337,0.103 l -0.011,0.39 c -0.032,0.017 -0.485,0.365 -1.333,0.365 h -0.174 c 0.489,1.644 0.937,3.108 1.306,4.798 l 0.015,-0.402 c 0.452,2.064 0.818,4.113 1.097,6.187 0.219,2.147 0.439,4.272 0.658,6.4 0.137,2.116 0.274,4.216 0.411,6.308 0.271,4.186 0.539,8.318 0.803,12.385 0.538,8.133 1.059,15.99 1.553,23.445 0.558,7.443 1.144,14.48 2.039,20.922 0.857,6.441 1.95,12.33 3.732,17.29 1.723,4.981 4.229,8.914 6.825,11.673 1.408,1.263 2.572,2.51 3.824,3.302 1.194,0.863 2.194,1.631 3.101,2.098 1.763,1.023 2.702,1.569 2.702,1.569 m -273.77,-33.209 c -0.763,-0.282 -1.607,-0.591 -2.526,-0.93 -0.915,-0.342 -1.812,-0.92 -2.819,-1.419 -1.968,-1.084 -3.995,-2.638 -5.965,-4.559 -0.531,-0.441 -0.919,-1.045 -1.401,-1.573 -0.445,-0.559 -0.96,-1.08 -1.372,-1.702 -0.802,-1.252 -1.733,-2.476 -2.417,-3.915 -1.558,-2.751 -2.695,-5.919 -3.802,-9.193 -2.099,-6.624 -3.396,-13.971 -4.711,-21.326 -0.71,-3.669 -1.403,-7.355 -2.277,-10.952 -0.848,-3.599 -1.84,-7.125 -3.172,-10.421 -0.604,-1.671 -1.421,-3.229 -2.19,-4.761 -0.927,-1.451 -1.734,-2.931 -2.829,-4.171 -0.959,-1.339 -2.187,-2.384 -3.293,-3.46 -0.596,-0.491 -1.24,-0.904 -1.839,-1.343 -0.303,-0.216 -0.603,-0.431 -0.902,-0.641 -0.308,-0.191 -0.644,-0.337 -0.962,-0.504 -0.635,-0.322 -1.26,-0.635 -1.872,-0.944 -0.611,-0.304 -1.273,-0.449 -1.883,-0.663 -0.617,-0.197 -1.22,-0.389 -1.805,-0.572 -0.603,-0.103 -1.188,-0.204 -1.756,-0.302 -2.254,-0.497 -4.281,-0.401 -5.915,-0.509 -0.698,0.005 -1.316,0.043 -1.882,0.088 0.065,-0.231 0.129,-0.459 0.19,-0.687 0.757,-2.002 1.414,-4.049 2.259,-6.021 l 0.445,-0.96 0.905,-1.965 0.674,-1.461 0.784,-1.408 c 4.068,-7.574 9.567,-14.339 15.823,-20.066 6.298,-5.7 13.25,-10.447 20.255,-14.534 14.06,-8.143 28.171,-13.934 40.115,-19.157 5.016,-2.166 9.623,-4.247 13.793,-6.25 0.807,-0.389 1.63,-0.78 2.405,-1.163 4.774,-2.321 8.791,-4.63 12.034,-6.624 2.633,-1.673 4.7,-3.155 6.236,-4.353 -0.277,0.335 -1.452,1.761 -3.33,4.038 -2.115,2.656 -5.204,6.41 -8.539,11.201 -3.328,4.782 -7.044,10.537 -10.159,17.174 -1.582,3.304 -2.977,6.835 -4.179,10.493 -1.216,3.656 -2.181,7.466 -2.827,11.334 -0.649,3.865 -0.987,7.784 -0.993,11.644 -0.071,3.856 0.253,7.647 0.727,11.283 0.522,3.631 1.232,7.113 2.179,10.334 0.225,0.807 0.449,1.605 0.668,2.387 0.26,0.772 0.514,1.534 0.764,2.282 0.254,0.748 0.499,1.482 0.742,2.202 0.276,0.71 0.546,1.406 0.812,2.086 1.005,2.745 2.197,5.151 3.179,7.307 1.082,2.11 2.023,3.946 2.836,5.439 1.719,2.929 2.703,4.605 2.703,4.605 0,0 -1.092,-1.618 -2.999,-4.45 -0.918,-1.442 -1.991,-3.224 -3.227,-5.279 -1.137,-2.104 -2.503,-4.457 -3.744,-7.158 -0.321,-0.671 -0.652,-1.356 -0.989,-2.055 -0.302,-0.714 -0.607,-1.442 -0.922,-2.182 -0.315,-0.745 -0.633,-1.501 -0.957,-2.272 -0.285,-0.783 -0.574,-1.58 -0.87,-2.389 -0.617,-1.612 -1.153,-3.304 -1.661,-5.054 -0.567,-1.737 -0.953,-3.563 -1.418,-5.417 -0.805,-3.725 -1.476,-7.66 -1.736,-11.724 -0.329,-4.055 -0.31,-8.236 0.042,-12.408 0.313,-4.174 0.973,-8.342 1.922,-12.37 0.931,-4.034 2.09,-7.962 3.458,-11.65 0.385,-1.045 0.782,-2.076 1.185,-3.091 -1.069,0.406 -2.132,0.812 -3.227,1.223 -12.28,4.653 -26.383,9.579 -40.152,16.692 -6.864,3.564 -13.607,7.708 -19.719,12.703 -6.069,5.023 -11.414,10.962 -15.522,17.751 -0.625,1.021 -1.208,2.066 -1.773,3.124 0.342,0.084 0.681,0.148 1.026,0.252 0.693,0.182 1.408,0.368 2.146,0.564 0.731,0.286 1.485,0.587 2.261,0.892 0.764,0.338 1.559,0.593 2.335,1.031 0.764,0.447 1.544,0.903 2.343,1.375 0.392,0.242 0.8,0.465 1.182,0.738 0.366,0.293 0.739,0.591 1.114,0.893 0.738,0.613 1.516,1.207 2.226,1.881 1.325,1.433 2.747,2.881 3.799,4.563 1.218,1.619 2.043,3.393 2.983,5.164 0.745,1.798 1.557,3.628 2.088,5.486 0.651,1.859 1.052,3.73 1.54,5.617 0.366,1.873 0.793,3.775 1.068,5.659 0.641,3.782 1.069,7.554 1.508,11.285 0.847,7.461 1.656,14.754 3.27,21.343 0.856,3.259 1.795,6.403 3.149,9.14 0.584,1.436 1.412,2.654 2.122,3.92 0.363,0.622 0.832,1.148 1.235,1.717 0.435,0.537 0.782,1.153 1.27,1.604 1.798,1.979 3.712,3.595 5.603,4.747 0.966,0.534 1.83,1.149 2.72,1.526 0.897,0.377 1.721,0.723 2.464,1.034 0.74,0.355 1.45,0.501 2.055,0.681 0.612,0.169 1.132,0.313 1.553,0.432 0.844,0.234 1.297,0.361 1.297,0.361 0,0 -0.453,-0.109 -1.307,-0.315 -0.841,-0.245 -2.122,-0.417 -3.652,-0.972 m -81.487,29.673 c 1.279,-0.771 2.478,-1.994 3.926,-3.24 2.685,-2.719 5.326,-6.656 7.187,-11.662 0.415,-1.263 0.983,-2.531 1.311,-3.907 0.366,-1.368 0.739,-2.773 1.121,-4.217 0.588,-2.926 1.23,-5.999 1.657,-9.239 0.986,-6.465 1.663,-13.509 2.318,-20.959 0.641,-7.451 1.239,-15.312 1.782,-23.444 0.283,-4.068 0.569,-8.201 0.857,-12.385 0.145,-2.094 0.291,-4.198 0.437,-6.313 0.225,-2.092 0.45,-4.194 0.673,-6.303 0.175,-1.141 0.387,-2.274 0.605,-3.411 0.18,-0.953 0.369,-1.907 0.541,-2.864 0.437,-1.768 0.933,-3.526 1.421,-5.289 0.583,-0.006 1.227,-0.006 1.949,0.018 1.619,0.188 3.6,0.188 5.787,0.788 0.549,0.121 1.116,0.247 1.699,0.376 0.558,0.209 1.133,0.424 1.724,0.644 0.578,0.239 1.21,0.393 1.792,0.705 0.576,0.313 1.168,0.632 1.772,0.963 0.297,0.167 0.614,0.313 0.903,0.506 l 0.844,0.64 c 0.56,0.44 1.162,0.848 1.715,1.333 1.024,1.066 2.164,2.084 3.041,3.401 1.009,1.202 1.745,2.66 2.591,4.073 0.681,1.511 1.48,3 2.044,4.641 1.264,3.215 2.207,6.687 3.009,10.252 0.826,3.559 1.482,7.231 2.153,10.903 1.384,7.334 2.766,14.733 4.967,21.463 1.14,3.346 2.421,6.551 4.114,9.346 0.748,1.45 1.75,2.699 2.617,3.961 0.443,0.624 0.997,1.153 1.475,1.718 0.513,0.533 0.933,1.137 1.495,1.58 2.084,1.945 4.258,3.439 6.328,4.439 1.054,0.461 1.992,1 2.939,1.302 0.947,0.296 1.818,0.569 2.603,0.814 0.771,0.286 1.507,0.366 2.132,0.48 0.628,0.109 1.163,0.199 1.594,0.273 0.864,0.15 1.323,0.228 1.323,0.228 0,0 -0.462,-0.062 -1.333,-0.18 -0.435,-0.061 -0.972,-0.135 -1.608,-0.218 -0.633,-0.095 -1.378,-0.146 -2.166,-0.398 -0.801,-0.212 -1.69,-0.451 -2.66,-0.708 -0.973,-0.267 -1.944,-0.768 -3.04,-1.193 -2.15,-0.936 -4.433,-2.364 -6.689,-4.255 -0.605,-0.43 -1.064,-1.024 -1.623,-1.548 -0.523,-0.555 -1.125,-1.08 -1.613,-1.7 -0.96,-1.252 -2.07,-2.506 -2.914,-3.957 -1.898,-2.811 -3.375,-6.034 -4.769,-9.399 -2.684,-6.767 -4.553,-14.219 -6.406,-21.448 -0.937,-3.609 -1.859,-7.192 -2.922,-10.567 -0.494,-1.715 -1.105,-3.314 -1.653,-4.928 -0.643,-1.533 -1.202,-3.103 -1.921,-4.471 -0.637,-1.452 -1.438,-2.672 -2.146,-3.915 -0.832,-1.094 -1.547,-2.26 -2.436,-3.082 -0.784,-0.973 -1.727,-1.586 -2.534,-2.297 -0.44,-0.304 -0.908,-0.526 -1.331,-0.792 l -0.628,-0.392 c -0.218,-0.111 -0.463,-0.178 -0.685,-0.271 -0.442,-0.182 -0.877,-0.358 -1.3,-0.532 -0.418,-0.176 -0.914,-0.218 -1.341,-0.34 -0.435,-0.109 -0.856,-0.215 -1.265,-0.318 -0.453,-0.041 -0.89,-0.08 -1.312,-0.119 -1.477,-0.24 -2.67,-0.106 -3.693,-0.096 -0.371,1.464 -0.705,2.941 -0.981,4.431 -0.305,2.001 -0.607,3.995 -0.912,5.979 -0.233,2.11 -0.469,4.207 -0.703,6.296 -0.466,4.173 -0.925,8.294 -1.376,12.351 -0.904,8.105 -1.789,15.963 -2.712,23.409 -0.941,7.448 -1.883,14.5 -3.124,20.988 -0.549,3.243 -1.327,6.337 -2.014,9.269 -0.435,1.451 -0.858,2.866 -1.271,4.243 -0.379,1.379 -1.002,2.662 -1.464,3.931 -2.056,5.039 -4.886,8.978 -7.696,11.646 -1.512,1.22 -2.758,2.415 -4.07,3.147 -1.258,0.804 -2.302,1.516 -3.241,1.936 -1.82,0.927 -2.79,1.42 -2.79,1.42 0,0 0.952,-0.524 2.738,-1.508 0.92,-0.448 1.938,-1.193 3.158,-2.028 M 359.619,187.863 c 1.722,-11.574 2.358,-22.288 2.07,-32.297 -0.59,0.285 -1.183,0.588 -1.754,0.976 -1.027,0.632 -2.094,1.29 -3.203,1.971 -1.115,0.669 -2.264,1.369 -3.337,2.247 -2.2,1.678 -4.595,3.365 -6.766,5.488 -1.098,1.039 -2.309,2.007 -3.371,3.148 -1.069,1.142 -2.149,2.296 -3.236,3.46 -1.133,1.13 -2.079,2.434 -3.106,3.68 -0.983,1.281 -2.096,2.476 -2.983,3.839 -0.932,1.333 -1.863,2.665 -2.787,3.991 -0.93,1.328 -1.708,2.747 -2.558,4.103 -1.744,2.695 -3.094,5.555 -4.564,8.236 -1.256,2.782 -2.612,5.419 -3.599,8.046 -0.516,1.304 -1.062,2.558 -1.511,3.799 -0.432,1.247 -0.851,2.453 -1.254,3.608 -0.828,2.308 -1.356,4.496 -1.946,6.399 -0.464,1.938 -0.87,3.627 -1.202,5.017 -0.503,2.822 -0.79,4.433 -0.79,4.433 0,0 0.236,-1.62 0.65,-4.455 0.289,-1.406 0.643,-3.112 1.047,-5.068 0.531,-1.924 0.994,-4.138 1.753,-6.478 0.366,-1.177 0.75,-2.399 1.146,-3.667 0.413,-1.262 0.919,-2.538 1.396,-3.866 0.91,-2.675 2.188,-5.369 3.373,-8.216 1.393,-2.747 2.669,-5.68 4.343,-8.459 0.819,-1.399 1.564,-2.86 2.46,-4.235 0.899,-1.375 1.799,-2.756 2.699,-4.136 0.86,-1.413 1.949,-2.662 2.912,-3.998 1.004,-1.301 1.932,-2.662 3.046,-3.851 1.077,-1.224 2.143,-2.438 3.198,-3.64 1.052,-1.202 2.258,-2.234 3.354,-3.335 2.161,-2.247 4.568,-4.068 6.79,-5.871 1.082,-0.939 2.246,-1.702 3.378,-2.432 1.128,-0.74 2.214,-1.459 3.259,-2.149 0.991,-0.715 2.065,-1.195 3.046,-1.723 -2.407,-48.737 -27.649,-80.23 -61.687,-109.791 -33.992,22.068 -61.772,45.533 -74.532,79.083 0.051,0.055 0.097,0.107 0.147,0.164 2.717,3.164 5.475,6.574 8.158,10.22 2.708,3.628 5.34,7.486 7.914,11.464 2.564,3.982 5.048,8.098 7.398,12.287 2.37,4.179 4.586,8.439 6.677,12.673 2.075,4.242 4.013,8.466 5.744,12.615 1.759,4.135 3.281,8.208 4.639,12.096 1.335,3.897 2.473,7.621 3.356,11.107 0.437,1.744 0.859,3.414 1.159,5.024 0.356,1.599 0.605,3.134 0.814,4.579 0.445,2.885 0.611,5.432 0.634,7.525 0.068,1.046 -0.073,1.986 -0.095,2.796 -0.018,0.815 -0.12,1.496 -0.229,2.044 -0.186,1.105 -0.282,1.693 -0.282,1.693 0,0 0.074,-0.592 0.209,-1.702 0.086,-0.554 0.158,-1.241 0.14,-2.05 -0.012,-0.81 0.087,-1.733 -0.025,-2.773 -0.112,-2.076 -0.386,-4.591 -0.95,-7.432 -0.267,-1.422 -0.581,-2.93 -1.001,-4.5 -0.367,-1.583 -0.859,-3.22 -1.364,-4.928 -1.023,-3.413 -2.312,-7.055 -3.797,-10.856 -1.513,-3.792 -3.191,-7.758 -5.11,-11.777 -1.887,-4.03 -3.985,-8.128 -6.218,-12.231 -2.246,-4.098 -4.616,-8.208 -7.131,-12.227 -2.494,-4.031 -5.118,-7.977 -7.805,-11.781 -2.692,-3.797 -5.435,-7.468 -8.23,-10.893 -2.205,-2.742 -4.443,-5.317 -6.65,-7.741 -5.427,16.866 -7.19,36.228 -4.244,59.104 43.932,39.286 42.105,86.37 36.176,111.469 8.07,-12.429 16.137,-27.437 16.137,-43.24 0,-19.505 10.539,-21.222 22.048,-21.811 v -0.11 c 0,0.018 1.227,0.034 1.644,0.052 0.418,-0.018 0,-0.034 1.642,-0.052 v 0.11 c 11.509,0.589 21.126,2.306 21.126,21.811 0,15.793 7.455,30.794 15.517,43.22 -7.173,-35.647 1.897,-100.907 26.118,-109.806"
           style="fill:#110f0d;fill-opacity:1;fill-rule:nonzero;stroke:none"
           id="path2542"
           inkscape:connector-curvature="0" /></g></g></g></svg>